<svg width="55" height="69" viewBox="0 0 55 69" fill="none" xmlns="http://www.w3.org/2000/svg">
<path fill-rule="evenodd" clip-rule="evenodd" d="M6.63804 10.7648C5.74671 11.5985 5.6 12.1842 5.6 12.4928C5.6 12.8014 5.74671 13.3871 6.63804 14.2208C7.53398 15.0588 8.9824 15.9424 11.0059 16.743C15.0366 18.3376 20.7963 19.3856 27.3 19.3856C33.8036 19.3856 39.5633 18.3376 43.594 16.743C45.6176 15.9424 47.066 15.0588 47.9619 14.2208C48.8532 13.3871 49 12.8014 49 12.4928C49 12.1842 48.8532 11.5985 47.9619 10.7648C47.066 9.92679 45.6176 9.04317 43.594 8.2426C39.5633 6.64797 33.8036 5.6 27.3 5.6C20.7963 5.6 15.0366 6.64797 11.0059 8.2426C8.9824 9.04317 7.53398 9.92679 6.63804 10.7648ZM8.94582 3.03531C13.7823 1.12184 20.2726 0 27.3 0C34.3273 0 40.8176 1.12184 45.6541 3.03531C48.0642 3.9888 50.2038 5.19381 51.7873 6.67504C53.3755 8.16059 54.5999 10.1248 54.5999 12.4928C54.5999 14.8608 53.3755 16.825 51.7873 18.3106C50.2038 19.7918 48.0642 20.9968 45.6541 21.9503C40.8176 23.8638 34.3273 24.9856 27.3 24.9856C20.2726 24.9856 13.7823 23.8638 8.94582 21.9503C6.53574 20.9968 4.39622 19.7918 2.81263 18.3106C1.22442 16.825 0 14.8608 0 12.4928C0 10.1248 1.22442 8.16059 2.81263 6.67504C4.39622 5.19381 6.53574 3.9888 8.94582 3.03531Z" fill="#DB7533"/>
<path fill-rule="evenodd" clip-rule="evenodd" d="M2.8 9.69336C4.3464 9.69336 5.6 10.9464 5.6 12.4928V27.0326C5.6 27.3414 5.74678 27.9271 6.63804 28.7608C7.53394 29.5988 8.9823 30.4824 11.0058 31.2829C15.0364 32.8775 20.7961 33.9254 27.3 33.9254C33.8038 33.9254 39.5635 32.8775 43.5942 31.2829C45.6178 30.4824 47.066 29.5988 47.9619 28.7608C48.8532 27.9271 49 27.3414 49 27.0326V12.4928C49 10.9464 50.2537 9.69336 51.8 9.69336C53.3463 9.69336 54.5999 10.9464 54.5999 12.4928V27.0326C54.5999 29.4006 53.3756 31.3649 51.7874 32.8505C50.2038 34.3318 48.0643 35.5368 45.6542 36.4902C40.8177 38.4036 34.3274 39.5254 27.3 39.5254C20.2725 39.5254 13.7822 38.4036 8.94574 36.4902C6.53566 35.5368 4.39614 34.3318 2.81255 32.8505C1.22431 31.3649 0 29.4006 0 27.0326V12.4928C0 10.9464 1.2536 9.69336 2.8 9.69336Z" fill="#DB7533"/>
<path fill-rule="evenodd" clip-rule="evenodd" d="M2.8 24.2327C4.3464 24.2327 5.6 25.4863 5.6 27.0327V41.5718C5.6 41.8806 5.74678 42.4664 6.63804 43.3001C7.53394 44.1381 8.9823 45.0217 11.0058 45.8222C15.0364 47.4168 20.7961 48.4646 27.3 48.4646C33.8038 48.4646 39.5635 47.4168 43.5942 45.8222C45.6178 45.0217 47.066 44.1381 47.9619 43.3001C48.8532 42.4664 49 41.8806 49 41.5718V27.0327C49 25.4863 50.2537 24.2327 51.8 24.2327C53.3463 24.2327 54.5999 25.4863 54.5999 27.0327V41.5718C54.5999 43.9399 53.3756 45.9041 51.7874 47.3898C50.2038 48.8711 48.0643 50.0761 45.6542 51.0295C40.8177 52.9429 34.3274 54.0646 27.3 54.0646C20.2725 54.0646 13.7822 52.9429 8.94574 51.0295C6.53566 50.0761 4.39614 48.8711 2.81255 47.3898C1.22431 45.9041 0 43.9399 0 41.5718V27.0327C0 25.4863 1.2536 24.2327 2.8 24.2327Z" fill="#DB7533"/>
<path fill-rule="evenodd" clip-rule="evenodd" d="M2.8 38.7676C4.3464 38.7676 5.6 40.0212 5.6 41.5676V56.1068C5.6 56.4155 5.74678 57.0013 6.63804 57.835C7.53394 58.673 8.9823 59.5566 11.0058 60.3571C15.0364 61.9517 20.7961 62.9996 27.3 62.9996C33.8038 62.9996 39.5635 61.9517 43.5942 60.3571C45.6178 59.5566 47.066 58.673 47.9619 57.835C48.8532 57.0013 49 56.4155 49 56.1068V41.5676C49 40.0212 50.2537 38.7676 51.8 38.7676C53.3463 38.7676 54.5999 40.0212 54.5999 41.5676V56.1068C54.5999 58.4748 53.3756 60.439 51.7874 61.9247C50.2038 63.406 48.0643 64.611 45.6542 65.5644C40.8177 67.4778 34.3274 68.5996 27.3 68.5996C20.2725 68.5996 13.7822 67.4778 8.94574 65.5644C6.53566 64.611 4.39614 63.406 2.81255 61.9247C1.22431 60.439 0 58.4748 0 56.1068V41.5676C0 40.0212 1.2536 38.7676 2.8 38.7676Z" fill="#DB7533"/>
</svg>
